<svg id="visual" viewBox="0 0 960 540" width="960" height="540" xmlns="http://www.w3.org/2000/svg" xmlns:xlink="http://www.w3.org/1999/xlink" version="1.1"><rect x="0" y="0" width="960" height="540" fill="#715DF2"></rect><path d="M0 362L22.8 365.8C45.7 369.7 91.3 377.3 137 380.8C182.7 384.3 228.3 383.7 274 374.7C319.7 365.7 365.3 348.3 411.2 347C457 345.7 503 360.3 548.8 363.5C594.7 366.7 640.3 358.3 686 358.7C731.7 359 777.3 368 823 366C868.7 364 914.3 351 937.2 344.5L960 338L960 541L937.2 541C914.3 541 868.7 541 823 541C777.3 541 731.7 541 686 541C640.3 541 594.7 541 548.8 541C503 541 457 541 411.2 541C365.3 541 319.7 541 274 541C228.3 541 182.7 541 137 541C91.3 541 45.7 541 22.8 541L0 541Z" fill="#ffffff"></path><path d="M0 359L22.8 368.8C45.7 378.7 91.3 398.3 137 399C182.7 399.7 228.3 381.3 274 378.5C319.7 375.7 365.3 388.3 411.2 392.2C457 396 503 391 548.8 384.2C594.7 377.3 640.3 368.7 686 373C731.7 377.3 777.3 394.7 823 403.8C868.7 413 914.3 414 937.2 414.5L960 415L960 541L937.2 541C914.3 541 868.7 541 823 541C777.3 541 731.7 541 686 541C640.3 541 594.7 541 548.8 541C503 541 457 541 411.2 541C365.3 541 319.7 541 274 541C228.3 541 182.7 541 137 541C91.3 541 45.7 541 22.8 541L0 541Z" fill="#e3c8ff"></path><path d="M0 400L22.8 406C45.7 412 91.3 424 137 426.7C182.7 429.3 228.3 422.7 274 424.8C319.7 427 365.3 438 411.2 436.7C457 435.3 503 421.7 548.8 418.7C594.7 415.7 640.3 423.3 686 429.2C731.7 435 777.3 439 823 438C868.7 437 914.3 431 937.2 428L960 425L960 541L937.2 541C914.3 541 868.7 541 823 541C777.3 541 731.7 541 686 541C640.3 541 594.7 541 548.8 541C503 541 457 541 411.2 541C365.3 541 319.7 541 274 541C228.3 541 182.7 541 137 541C91.3 541 45.7 541 22.8 541L0 541Z" fill="#c391ff"></path><path d="M0 470L22.8 466.5C45.7 463 91.3 456 137 457.3C182.7 458.7 228.3 468.3 274 473C319.7 477.7 365.3 477.3 411.2 473.7C457 470 503 463 548.8 455.7C594.7 448.3 640.3 440.7 686 440.7C731.7 440.7 777.3 448.3 823 449C868.7 449.7 914.3 443.3 937.2 440.2L960 437L960 541L937.2 541C914.3 541 868.7 541 823 541C777.3 541 731.7 541 686 541C640.3 541 594.7 541 548.8 541C503 541 457 541 411.2 541C365.3 541 319.7 541 274 541C228.3 541 182.7 541 137 541C91.3 541 45.7 541 22.8 541L0 541Z" fill="#9c58ff"></path><path d="M0 513L22.8 509.7C45.7 506.3 91.3 499.7 137 493.3C182.7 487 228.3 481 274 481.5C319.7 482 365.3 489 411.2 488.7C457 488.3 503 480.7 548.8 480.3C594.7 480 640.3 487 686 487C731.7 487 777.3 480 823 481.8C868.7 483.7 914.3 494.3 937.2 499.7L960 505L960 541L937.2 541C914.3 541 868.7 541 823 541C777.3 541 731.7 541 686 541C640.3 541 594.7 541 548.8 541C503 541 457 541 411.2 541C365.3 541 319.7 541 274 541C228.3 541 182.7 541 137 541C91.3 541 45.7 541 22.8 541L0 541Z" fill="#6600ff"></path></svg>